<?xml version="1.0" encoding="utf-8"?>
<!-- Generator: Adobe Illustrator 26.0.3, SVG Export Plug-In . SVG Version: 6.00 Build 0)  -->
<svg version="1.1" id="Layer_1" xmlns="http://www.w3.org/2000/svg" xmlns:xlink="http://www.w3.org/1999/xlink" x="0px" y="0px"
	 viewBox="0 0 388.7 95.2" style="enable-background:new 0 0 388.7 95.2;" xml:space="preserve">
<style type="text/css">
	.st0{display:none;fill:#97AABA;stroke:#97AABA;}
	.st1{fill:#97AABA;stroke:#97AABA;}
</style>
<rect x="-225.8" y="-103.1" class="st0" width="828.5" height="245.2"/>
<g>
	<path class="st1" d="M355.8,46.4c-1.1,0-2.1,0.3-2.8,0.9c-0.7,0.6-1.2,1.6-1.4,2.8h8.3c0-1.1-0.4-2-1.1-2.7
		C357.9,46.7,356.9,46.4,355.8,46.4z"/>
	<path class="st1" d="M371.1,21.5h-125c-3.9,0-7.1,3.2-7.1,7.1v40.9c0,3.9,3.2,7.1,7.1,7.1h125c3.9,0,7.1-3.2,7.1-7.1V28.6
		C378.2,24.7,375,21.5,371.1,21.5z M275.3,39.9h-8.9V66h-9.3V39.9h-8.9v-7.4h27.1V39.9z M306.1,66h-9.4v-3.8
		c-0.8,1.2-1.9,2.2-3.3,2.9c-1.4,0.7-3,1.1-4.8,1.1c-3.1,0-5.6-1-7.4-3c-1.8-2.1-2.7-4.8-2.7-8.3V39.3h9.3v14.4
		c0,1.5,0.4,2.8,1.2,3.6c0.8,0.9,1.9,1.3,3.2,1.3c1.3,0,2.5-0.4,3.3-1.3c0.8-0.9,1.2-2.1,1.2-3.6V39.3h9.4V66z M338.5,60
		c-1,2.1-2.4,3.6-4.1,4.8c-1.7,1.1-3.6,1.6-5.8,1.6c-1.8,0-3.3-0.4-4.7-1c-1.3-0.7-2.4-1.7-3.1-3V66h-9.3V30.9h9.3v12.2
		c0.7-1.3,1.8-2.2,3.1-3s2.9-1,4.7-1c2.2,0,4,0.5,5.8,1.6c1.7,1.1,3.1,2.7,4.1,4.8c1,2.1,1.5,4.5,1.5,7.2
		C340,55.4,339.4,57.9,338.5,60z M369.2,54.6h-17.6c0.1,1.5,0.5,2.5,1.2,3.3c0.7,0.7,1.6,1,2.8,1c1.6,0,2.7-0.7,3.3-2.1h10
		c-0.4,1.9-1.2,3.5-2.4,4.9s-2.7,2.6-4.5,3.4c-1.8,0.8-3.8,1.3-6,1.3c-2.6,0-5-0.5-7-1.6c-2.1-1.1-3.6-2.7-4.8-4.8s-1.7-4.5-1.7-7.3
		s0.6-5.2,1.7-7.3c1.1-2.1,2.8-3.6,4.8-4.8c2.1-1.1,4.4-1.6,7.1-1.6c2.6,0,5,0.5,7,1.6c2,1,3.6,2.6,4.8,4.6s1.7,4.4,1.7,7.1
		C369.3,53.1,369.3,53.9,369.2,54.6z"/>
	<path class="st1" d="M325.6,47.2c-1.3,0-2.5,0.5-3.4,1.5c-1,1-1.4,2.3-1.4,4s0.4,3.1,1.4,4.1c1,1,2.1,1.5,3.4,1.5
		c1.3,0,2.5-0.5,3.4-1.5c1-1,1.4-2.4,1.4-4.1s-0.4-3.1-1.4-4.1C328.1,47.6,326.9,47.2,325.6,47.2z"/>
</g>
<g>
	<path class="st1" d="M54.9,41.9c2,1.6,3.6,3.3,5,5.2c8.4,11.3,5,27.8-7.2,35.2c-10.8,6.6-24.7,3.9-32.5-6.2
		c-3.1-4-5.3-8.4-6.1-13.4c-0.7-4.7-0.1-9.2,1.8-13.5c0.5,5.9,2.3,11.2,6,16.1c0.2-0.7,0.3-1.2,0.4-1.7c1.3-5.4,0.4-10.3-3.1-14.6
		c-0.8-1-1.5-2-2.2-3c-2.2-3-4-6.2-4.6-9.9c-0.2-1.4-0.2-2.9-0.2-4.3c0.1,0,0.2-0.1,0.3-0.1c0.2,0.3,0.4,0.6,0.6,1
		c0.8,1.3,1.5,2.7,2.5,3.9c0.5,0.7,1.4,1.2,2.1,1.7c0.6,0.4,1.3,0.3,1.9-0.2c0.6-0.5,0.7-1.2,0.5-1.9c-0.2-0.5-0.4-0.9-0.8-1.3
		c-5.9-5.9-6.6-12.8-3.6-20.3c0.1-0.3,0.2-0.5,0.3-0.8c0-0.1,0.1-0.1,0.2-0.4c0.1,0.5,0.2,0.9,0.2,1.2c0.7,4.3,3,7.7,6.4,10.3
		c1.6,1.3,3.4,2.4,5.2,3.5c3.7,2.3,7.6,4.3,10.7,7.6c-1.4-3.7-3.2-7.4-1.2-11.5c0.5,4.1,3.2,6.7,6.4,9.3c0-0.5,0-0.8,0-1.1
		c0-6.2,0-12.3,0-18.5c0-0.3,0-0.5,0-0.8c0.1-1.5,1.1-2.3,2.5-2c8,1.7,15.9,3.3,23.9,5c1.7,0.4,2.2,1,2.2,2.7c0,4,0,8,0,12.3
		c-1.1-1.9-2.9-2.2-4.7-2.6c-5.9-1.3-11.9-2.6-17.8-3.9c-0.2,0-0.3-0.1-0.6-0.1c0,11,0,22,0,33.1c-0.4-0.2-0.7-0.3-1-0.4
		c-6.1-2.7-12-2.4-17.5,1.6c-5.2,3.8-5.4,10.4-0.6,14.6c1,0.9,2.1,1.6,3.3,2.1c5.8,2.5,11.5,2.2,16.8-1.4c2.9-2,4.5-4.8,4.4-8.5
		c-0.1-7.6,0-15.2,0-22.8C54.9,42.8,54.9,42.5,54.9,41.9z"/>
	<path class="st1" d="M30.3,66.1c0.2-2.4,1.4-4.3,3.3-5.7c2.1-1.5,4.5-2.2,7-2.3c0.6,0,1,0.1,1,0.8c0,0.7-0.4,0.8-1,0.8
		c-2.5,0.1-4.8,0.8-6.7,2.5c-1.2,1.1-1.9,2.4-2.1,4c0,0.6-0.2,1.1-0.9,1C30.2,67.3,30.3,66.7,30.3,66.1z"/>
</g>
<g>
	<path class="st1" d="M96.6,60.4c-2.1-0.9-3.8-2.1-5-3.8c-1.3-1.7-1.9-3.7-2-6.1H99c0.1,1.3,0.6,2.4,1.4,3.1
		c0.8,0.7,1.8,1.1,3.1,1.1c1.3,0,2.3-0.3,3.1-0.9c0.8-0.6,1.1-1.4,1.1-2.5c0-0.9-0.3-1.6-0.9-2.2c-0.6-0.6-1.3-1.1-2.2-1.4
		c-0.9-0.4-2.1-0.8-3.8-1.3c-2.3-0.7-4.3-1.4-5.7-2.2c-1.5-0.7-2.8-1.8-3.8-3.2c-1.1-1.4-1.6-3.3-1.6-5.5c0-3.4,1.2-6,3.7-7.9
		c2.4-1.9,5.6-2.9,9.6-2.9c4,0,7.2,1,9.7,2.9c2.4,1.9,3.8,4.6,3.9,8H107c-0.1-1.2-0.5-2.1-1.3-2.8c-0.8-0.7-1.8-1-3.1-1
		c-1.1,0-1.9,0.3-2.6,0.9c-0.7,0.6-1,1.4-1,2.5c0,1.2,0.6,2.1,1.7,2.7c1.1,0.7,2.8,1.4,5.2,2.1c2.3,0.8,4.3,1.6,5.7,2.3
		c1.5,0.7,2.7,1.8,3.8,3.2c1.1,1.4,1.6,3.2,1.6,5.3c0,2.1-0.5,4-1.6,5.6c-1.1,1.7-2.6,3-4.6,4c-2,1-4.4,1.5-7.1,1.5
		C101.1,61.7,98.7,61.3,96.6,60.4z"/>
	<path class="st1" d="M128,60c-2.3-1.2-4-2.9-5.3-5.2c-1.3-2.2-1.9-4.9-1.9-7.9c0-3,0.7-5.6,2-7.8c1.3-2.3,3.1-4,5.4-5.2
		c2.3-1.2,4.8-1.8,7.7-1.8c2.8,0,5.4,0.6,7.7,1.8c2.3,1.2,4.1,2.9,5.4,5.2c1.3,2.3,2,4.9,2,7.8s-0.7,5.6-2,7.8
		c-1.3,2.3-3.1,4-5.4,5.2c-2.3,1.2-4.9,1.8-7.7,1.8C132.8,61.8,130.2,61.2,128,60z M139.9,52.3c1.2-1.2,1.8-3,1.8-5.3
		c0-2.3-0.6-4.1-1.7-5.3c-1.2-1.2-2.6-1.9-4.3-1.9c-1.7,0-3.2,0.6-4.3,1.8c-1.1,1.2-1.7,3-1.7,5.4c0,2.3,0.6,4.1,1.7,5.3
		s2.5,1.9,4.2,1.9C137.3,54.1,138.7,53.5,139.9,52.3z"/>
	<path class="st1" d="M181.1,35.5c2,2.2,3,5.2,3,9v16.9h-8.8V45.7c0-1.9-0.5-3.4-1.5-4.5c-1-1.1-2.3-1.6-4-1.6c-1.7,0-3,0.5-4,1.6
		c-1,1.1-1.5,2.6-1.5,4.5v15.7h-8.8V32.5h8.8v3.8c0.9-1.3,2.1-2.3,3.6-3c1.5-0.7,3.2-1.1,5.1-1.1C176.4,32.2,179.1,33.3,181.1,35.5z
		"/>
	<path class="st1" d="M206.6,33.3c1.5,0.8,2.7,1.9,3.5,3.3v-4.1h8.8v28.8c0,2.7-0.5,5.1-1.6,7.2c-1.1,2.2-2.7,3.9-4.8,5.1
		c-2.2,1.3-4.8,1.9-8,1.9c-4.3,0-7.7-1-10.4-3c-2.7-2-4.2-4.8-4.6-8.2h8.7c0.3,1.1,0.9,2,2,2.6c1,0.6,2.3,1,3.8,1
		c1.8,0,3.3-0.5,4.4-1.6c1.1-1.1,1.6-2.7,1.6-5v-4.1c-0.9,1.3-2.1,2.4-3.6,3.3c-1.5,0.8-3.3,1.3-5.3,1.3c-2.4,0-4.5-0.6-6.5-1.8
		c-1.9-1.2-3.5-3-4.6-5.2c-1.1-2.3-1.7-4.9-1.7-7.8c0-3,0.6-5.6,1.7-7.8c1.1-2.2,2.6-4,4.6-5.2c1.9-1.2,4.1-1.8,6.5-1.8
		C203.3,32.1,205.1,32.5,206.6,33.3z M208.3,41.7c-1.2-1.3-2.7-1.9-4.5-1.9s-3.3,0.6-4.5,1.9c-1.2,1.3-1.8,3-1.8,5.2
		c0,2.2,0.6,4,1.8,5.3c1.2,1.3,2.7,1.9,4.5,1.9s3.3-0.6,4.5-1.9c1.2-1.3,1.8-3,1.8-5.2C210.2,44.7,209.6,43,208.3,41.7z"/>
</g>
</svg>
